<svg id="Layer_4" data-name="Layer 4" xmlns="http://www.w3.org/2000/svg" xmlns:xlink="http://www.w3.org/1999/xlink" viewBox="0 0 1000 1000"><defs><style>.cls-1{fill:none;}.cls-2{fill:#052460;}.cls-3{clip-path:url(#clip-path);}.cls-4{fill:#fff;}</style><clipPath id="clip-path"><circle class="cls-1" cx="500.5" cy="500.31" r="499"/></clipPath></defs><circle class="cls-2" cx="500.5" cy="500.31" r="499"/><g class="cls-3"><path class="cls-4" d="M454,661.91c-12.27-29,3.62-60.28,8.28-69.44C469.14,579,474,577,477.67,565.35c6.48-20.48-.19-40.36-7.1-54.25,15.47,10.28,31.52,25.08,36.67,45.57,5,19.76-4.5,27.75,2.36,45.57,9.7,25.16,35.14,26.18,40.22,44.48,3,11-1,29-37.85,58.59C506,703.8,467.33,693.43,454,661.91Z"/><path class="cls-4" d="M547.07,711.44a137.51,137.51,0,0,1-78.31,0c-7.38-2.24-15.44.39-17.86,6.91-40,116.53,10.84,250.54,13.93,375.37H551c3.08-124.82,53.92-258.83,13.93-375.36C562.52,711.83,554.45,709.2,547.07,711.44Z"/><path class="cls-4" d="M163.15,638.94c1.45,13,3.13,26.1,5,39,1.7,11.45,3.45,23.17,5.76,34.45a118.52,118.52,0,0,0,6.26,19.77c2.81,7,5.69,13.49,8.77,16.62,4.26,4.31,9.22,3.38,11.22-2.93l-.24-.15c1-3.62,1-10,0-19.12a104.32,104.32,0,0,1-.77-16.38,79.47,79.47,0,0,0,12.22,7c4.64,1.94,7,2.89,11.67,4.73,6.14,2.61,15,6.34,17.73,10.34,3.85,5.73,4.3,20.58,4.88,30.63.75,13.11-.06,26.88-4.43,39.38-3.71,10.64-9.32,17.24-16.4,19.27s-15.09-2.21-23.81-9.27a101.82,101.82,0,0,1-8.92-7.93c-12-12.21-21.51-27.15-30.13-41.82-8.17-13.9-15.65-29-20.23-44.19-5.78-19.2-11-39.36-16.14-59.07-3.65-14-7.25-28-10.71-42-1.16-4.84-1.74-7.26-2.89-12.1a41.18,41.18,0,0,1-1.75-9.2,39,39,0,0,1,.18-9,51.19,51.19,0,0,1,3.4-12,33.82,33.82,0,0,1,6.17-10.33c3-3.12,8.69-5.81,16-8.25a72.59,72.59,0,0,1,22.74-3.74,67.59,67.59,0,0,1,38,11.7,91.35,91.35,0,0,1,29.77,34.73,129.81,129.81,0,0,1,13,48.79c.56,9.48.68,27.43-1.94,29.67-2.19,1.88-13.51-.24-18.41-1.74-9.84-3-19-8.45-28.06-13.38-.9-5.51-1.35-8.27-2.25-13.76-1.55-11-3.47-19.48-5.81-25.35s-6.33-9.13-11.91-10a1.49,1.49,0,0,0-.65,0,3.22,3.22,0,0,1-1.2-.06l.27,0c-5.46.07-8.17,1.76-8.2,5.15C161.22,619.37,161.73,626.24,163.15,638.94Z"/><path class="cls-4" d="M387.91,908.06c-10.15.41-20.17-2.5-29.51-5.43-6-1.9-11.7-3.8-16.68-5.09-2.19-23.88-2.83-47.91-3.68-71.87-.72-20.26-1.37-40.61-3.56-60.78-4.19-1.37-6.28-2.07-10.45-3.5-5.47-1.39-11.89-2.19-12.5-1.51-2.07,2.28-.39,16.8-.18,24.62.27,10.12.53,20.26,1,30.38l.3,11.75c.22,4.74.34,7.12.56,11.86.26,13.52,3.38,34.94-.26,40.56-1.22,1.89-8.69,1.64-14.35-1.27a98.37,98.37,0,0,1-10.26-6.31l-2.3-1.69q-4.59-3.4-6.09-4.28c-3.21-1.51-4.81-2.28-8-3.88-3.41-38.48-6.13-77-8.86-115.56-3.19-44.95-6.21-90-8.37-135-.74-15.56-1.52-31.13-2-46.71q16.23-.11,32.45-.26c5,.09,12.29,1.38,13.62,3.35,4.38,6.53,2.41,29.65,3.22,44.5.23,4.32.35,6.48.58,10.81.66,11.07,1.32,22.16,2.3,33.21.87,9.84,2.08,19.73,3.55,29.52,4.24,1.46,6.36,2.19,10.62,3.63a15.35,15.35,0,0,0,5.41,0,33.12,33.12,0,0,1,5.15-.57l.56.08c.73-22.68,1.14-45.4.67-68-.37-17.34-1-34.73-1.85-52.09a65.57,65.57,0,0,1,16-4.93,95.33,95.33,0,0,1,18.43-1.74,82.91,82.91,0,0,1,13.57,1.07Q382.73,735.46,387.91,908.06Z"/><path class="cls-4" d="M742.05,838.31a70.68,70.68,0,0,1-1.5,12.69,14.05,14.05,0,0,1-2.81,6,29.56,29.56,0,0,1-6,4.55L730,862.6c-1.59.8-2.38,1.2-4,2-2.6,1.72-3.91,2.56-6.54,4.23a316.55,316.55,0,0,1-47.39,24.28A403,403,0,0,1,622.73,910c0-4.46.07-6.69.12-11.15q2.64-80.6,3.57-161.24c.29-27.23.26-54.5.28-81.76,0-4.65.07-7,.11-11.62.08-7.17.11-10.75.19-17.92-.2-9.84-.1-19.69,0-29.53l0-31.48a40.3,40.3,0,0,1,11.3-4.19,63.11,63.11,0,0,1,14.44-1.77,72.3,72.3,0,0,1,16.12,1.76A39.4,39.4,0,0,1,681.77,566c-.67,17.63-1.32,35.28-1.71,52.91-.59,27.55-.88,55.14-1.2,82.71-.32,27.1-.9,54.2-1.48,81.3q-.32,14.93-.64,29.87c5.94-1.91,13.18-3.89,21.66-6.16,5.62-1.74,8.42-2.65,14-4.55a145.88,145.88,0,0,0,20.5-7.59,94.2,94.2,0,0,0,11.83-6.4q-.51,9.46-.91,12.48l0-.41c-.73,7.58-1.09,13-1.1,16.19s-.09,4.62-.16,7.69S742.38,832,742.05,838.31Z"/><path class="cls-4" d="M882.94,623.75l.06-.28a56.28,56.28,0,0,1-2,16.67c-1.42,5.37-2.94,9.69-3.64,12.4L876,657c-.33,1.27-1.59,5.6-3.75,13s-4.61,15.43-7.69,23.19c-5.37,13.51-12.15,27.35-18.42,40.9q-11.64,25.18-22.89,50.61c-9.6,10.31-19.32,20.41-29.83,29.8-6.45,5.88-9.73,8.72-16.39,14.24-7.21,6-10.88,8.84-18.33,14.38-.71-42.93,1.35-86,4-128.72,1.08-17.31,2.19-34.67,3.55-52,1.4-17.82,2.54-35.69,3.66-53.52.6-9.54.91-19.12,1.26-28.69.19-4.78.28-7.18.47-12l2-.46a146.46,146.46,0,0,1,35.66-6.3l7.42.19,7.74-.18q3.67.27,11.42.06t11.49-.63a49,49,0,0,1,18.36,10.44,41.47,41.47,0,0,1,11.6,16l-1.16-2.12A82.67,82.67,0,0,1,882.94,623.75Zm-45,43.12a104,104,0,0,0-1.49-20.55c-1.06-5.19-3.49-8.16-7.3-8.88l.52-.14c-4.16.7-7.32,1.3-9.44,1.86-3.54.92-5.88,1.74-7,2.48-.58,8.46-1.29,16.45-2.11,24-.41,3.7-.61,5.54-1,9.24-.52,3.88-.78,5.81-1.3,9.7q-1.15,8.28-2.92,24.65-1.71,15.66-2.84,24a9.57,9.57,0,0,0,4.85-.82c1.25-.74,1.88-1.11,3.12-1.86a24.54,24.54,0,0,0,5.64-4.37c2.65-2.46,6.23-8.37,10.24-17.21,4.51-9.92,8.64-20.27,10.29-31.25A61.13,61.13,0,0,0,837.9,666.87Z"/><path class="cls-4" d="M262.44,460.28c-.23,7.7-.75,13.3-1.61,16.6s-2.11,5.48-3.71,6.47-4.35,1.77-8.21,2.34l-2.39.36-5.43.26-8.85,1.89c-20.5,4.14-41.24,7.36-61.86,10.42-20.35,3-40.84,5.88-61.35,8.08.61-4.33.92-6.48,1.57-10.74,8.61-46.6,19-92.81,31.67-138.38,5.55-19.93,11.67-39.76,18.12-59.46,1.1-3.24,1.65-4.84,2.77-8,1.71-4.93,2.58-7.36,4.31-12.19,1.17-3.57,3.49-10.11,7-19.4,3-8.14,4.52-12.15,7.55-20.05,2.31-3.24,5.33-7.23,9.12-11.91s7.52-8.95,11.21-12.76a110.6,110.6,0,0,1,12.29-11.1c4.08-3.11,7.33-4.92,9.65-5.53-3.74,14.46-7.42,28.95-10.82,43.48C208,263.73,203.21,287,198.82,310.3c-4.66,24.65-8.79,49.48-12.53,74.34q-2.16,14.63-4,29.31c6.9-1.88,15.35-3.72,25.45-5.41,6.72-1.36,10.1-2,16.88-3.34q13.4-1.89,25.49-4.66a123.51,123.51,0,0,0,15.14-4.4c-.46,7.72-.84,12.88-1.18,15.32l0-.51c-.93,9.33-1.34,16.18-1.3,20.36,0,4-.05,6-.07,10C262.79,445.58,262.68,451.84,262.44,460.28Z"/><path class="cls-4" d="M374.27,116.76c-3.73,37.91-7.7,75.86-11.4,113.72-3.92,40.15-7.24,80.56-8.64,120.86-1.32,38.11-1,76.3.39,114.47-5.49,8.78-17.95,11.1-27.29,12.1-8.28.88-14.51,1.58-18.44,1.7l-4.16-.05-6.22.23q-6.93.93-17.63,7,2.47-50.32,5-100.65c1-18.73,1.92-37.45,3-56.18.74-11,1.14-16.39,2-27.09,1.8-25.86,3.9-51.77,7-77.42,3.66-29.76,8.5-59.45,13.86-89a54.29,54.29,0,0,1,8.39-4.93,43.73,43.73,0,0,1,6.49-2.33c2.74-.78,6.21-2.55,10-4.09,9.46-3.9,19.09-6.25,25.64-8.83,4.92-1.69,7.4-2.5,12.4-4C374.53,114.05,374.44,115,374.27,116.76Z"/><path class="cls-4" d="M526.61,270.78c4.49.76,6.74,1.17,11.27,2,2.4.44,3.61.66,6,1.13.27,4.06.41,6.09.69,10.16.23,3.56.74,11.24,1.52,23.14.68,10.3,1.39,20.71,1.51,31,.22,17.42,0,35.41-1.61,52.4-1.36,14.52-4.4,28.95-11.8,42.21-6.28,11.25-15.5,22.1-26.26,27.71-14.89,7.75-33.58,14.25-50.72,14.12-10.79-.08-22.13-1.75-32.05-8-22.45-14.87-32.86-42.59-37.29-68a361.46,361.46,0,0,1-3.6-37c-1.43-28.06-.53-59.78-.08-88.8.61-10.28,1.3-18.47,1.88-24.51,2-21.12,3.63-43,8.1-63.72,4.78-22.14,11.82-44.85,26.7-62.4A81.84,81.84,0,0,1,458,97.28a64.21,64.21,0,0,1,16.48-3c22.41-.62,40.12,7.61,53.1,27.88,14.61,22.8,18.14,49.67,18.22,76.26-.44,6.25-.66,9.35-1.07,15.52l-.15,6.78a31.9,31.9,0,0,1-5.86-.28q-3.43-.43-6.16-.73c-6.55-.74-9.8-1.05-16.25-1.54-8.51-.65-16.36-1.63-24.78-3.09-2-10.58-5.25-38.81-17.07-40.38-1-.13-2.47-.11-3.86-.39a16.41,16.41,0,0,0-3.86-.38c-3.77.14-7.19,2.3-10.26,6.41-.26.35-1.35,4.36-3.25,12C445,221.66,442.89,253,441.65,283.08c-.69,16.66-.91,33.7-.15,50.4.62,13.93,1.1,32.09,9.16,44.21,2.41,2.06,4.52,3.77,5.81,4.13,2.17.59,5.91-.1,9.7-1.09a37.54,37.54,0,0,0,10.2-4.23c4.21-2.56,6.86-8.5,8.29-17.11.69-4.16,1.55-9.63,2.37-16.17s1.12-10.42.89-11.79c-3.58,0-5.37,0-8.94,0-9.17.73-16-.13-20.81-2.7-.34-7.12-.36-15.85-.05-26.13.06-2.19.1-3.28.17-5.45q.06-2,.4-6.68c.23-3.12.14-9.1-.22-17.87a81,81,0,0,0,12.31-2.21c9.62-2.23,17.21-3.4,22.11-3.32C504.22,267.24,515.42,269,526.61,270.78Z"/><path class="cls-4" d="M751.29,476.86c-12.88,1.72-25.88.71-38.63-.5a212.79,212.79,0,0,0-23-1.16c-4.88-26.79-7.94-53.95-10.92-81-2.21-20.07-4.23-40.32-8-60.19-5.51-1.62-8.27-2.41-13.82-4-7.26-1.59-15.88-2.54-16.67-1.69-2,2.22-.08,17.19.44,25.39.69,10.87,1.47,21.75,2.59,32.58.38,5.19.57,7.82,1,13.14s.83,8,1.41,13.53c1.21,16.74,6.32,41.59,2.18,50.28-1.79,3.76-12.47,6.66-21,6a139.19,139.19,0,0,1-15.64-2.27l-3.55-.83a70.74,70.74,0,0,0-9.43-1.8c-5,.19-7.44.29-12.41.51-5.45-48.41-9.44-97.12-12.07-145.63-2.79-51.68-3.6-103.71-2.42-155.56.45-20,1-40.07,1.93-60.09,12.71,2.45,25.3,5.49,37.75,9,5.83,1.82,14.11,5.67,15.79,9.17,4.78,10,1.65,35.64,2.17,53.47.14,4.89.22,7.31.38,12.1.43,12,1.07,23.94,2.12,35.85.91,10.24,2.34,20.59,4.2,30.71,5.41,2.2,8.12,3.33,13.52,5.61a28.34,28.34,0,0,0,6.85,1.14,48.41,48.41,0,0,1,6.45.66l.7.22q.93-33.51.49-67c-.29-19.52-1-39.12-1.56-58.68,5.13-.45,11.35.17,18.6,2a103,103,0,0,1,20.92,7.78,119.06,119.06,0,0,1,15.09,8.89C721.18,263.13,735.76,369.47,751.29,476.86Z"/><path class="cls-4" d="M855.09,286.74c1.4,12.83,2.88,25.67,3.92,38.54a94,94,0,0,0-10.72-10.55c-4-3.23-6-4.85-10.29-8.11-3.92-2.88-5.94-3.94-5.85-3.2.1,3.26.81,10.45,2.28,20.78,8.13,56.9,22.83,112.82,33.88,169.2-4.92.74-11.07.59-18.58-.55l-8.5-1.27a96.24,96.24,0,0,0-27.81-.42c-.89-1.84-1.89-5.47-3-10.75a140.22,140.22,0,0,1-2.24-14.1c-1.41-9.45-2.09-14-3.42-22.72q-2.71-18.82-5.46-37.66c-6.86-44.62-13.74-89.19-18.88-134a33.73,33.73,0,0,0-9.27-7.08c-4.74-2.41-7.15-3.61-12-6C752.21,255.22,747,252,743.8,249c-.73-2.05-1.53-7.06-2.36-15.41-1-9.63-1.55-19.37-1.87-29-.41-12.38-.81-24.76-.83-37.15,5.28,3,7.89,4.59,13,7.72,4.65,2.62,7,3.94,11.48,6.61,6.51,4.15,9.7,6.25,15.92,10.48,6.43,4.17,9.57,6.28,15.65,10.51,20.23,15.37,39.37,31.8,54.82,52.12.94,1,1.4,1.46,2.31,2.43Q853.47,272,855.09,286.74Z"/></g></svg>